<?xml version="1.0" encoding="utf-8"?>
<!-- Generator: Adobe Illustrator 19.0.0, SVG Export Plug-In . SVG Version: 6.00 Build 0)  -->
<svg version="1.1" id="Layer_1" xmlns="http://www.w3.org/2000/svg" xmlns:xlink="http://www.w3.org/1999/xlink" x="0px" y="0px"
	 viewBox="248 -248 512 481.1" style="enable-background:new 248 -248 512 481.1;" xml:space="preserve">
<style type="text/css">
	.st0{fill:#00ACEE;}
	.st1{fill:#FFCC2F;}
	.st2{fill:#2BAF2B;}
	.st3{fill:#EF5734;}
	.st4{fill:#543729;}
	.st5{fill:#FFFFFF;}
	.st6{fill:#CECECE;}
</style>
<g>
	<g id="leaf">
		<path class="st0" d="M682.6-184.5c-67.8,0-118.4,71.7-95,123.2C683.6-61.3,644.5-149.9,682.6-184.5z"/>
	</g>
	<path id="body" class="st1" d="M704.5,9c0-22.8-108.6-34.1-169.1-37.7C474.9-32.2,253.8,9.7,280,65.1
		c26.2,55.4,92.6,114.4,167.3,114.4c38.7,0,83.6-27.3,86.1-77.4C578.1,87.2,704.5,86.4,704.5,9z"/>
	<path id="wing_tip" class="st2" d="M649,24.1c7,7.1-15.2,26.3-34.6,17.3c8.7,19.7-29.7,36.1-48.3,22c2,15.9-36.1,25-48.3,7.3
		c3.1,8.4,5.8,14.9,8.2,20.2c0-0.1,0-0.1,0-0.1c6.3,8.3,14.9,14.9,52.4,14.9c57.7,0,151-43.8,151-76c0-26.6-10-29.1-27.2-27.2
		C684.9,4.4,594.9,13.8,575.8,10C586.2,12.2,638.5,22.3,649,24.1z"/>
	<path id="head" class="st3" d="M446.5-199.2c-110.4,0-221.2,109.7-168.5,261.1c35.8,21.5,83.6,13,94.3,1.5
		c16.2,5.2,30.6,7.3,43.5,7.3c67,0,124.3-71.2,124.3-160.3C540.2-180.8,479.9-199.2,446.5-199.2z"/>
	<path id="eye_rim" class="st1" d="M401.3-101.5c0,24.6,20,44.6,44.6,44.6c24.6,0,44.6-20,44.6-44.6c0-24.6-20-44.6-44.6-44.6
		C421.3-146.1,401.3-126.1,401.3-101.5z"/>
	<path id="eye" class="st4" d="M419.2-101.5c0,14.7,12,26.7,26.7,26.7c14.7,0,26.7-12,26.7-26.7c0-14.7-12-26.7-26.7-26.7
		C431.2-128.2,419.2-116.2,419.2-101.5z"/>
	<ellipse id="pupil_highlight" class="st5" cx="445.9" cy="-113.3" rx="15.6" ry="9.7"/>
	<path id="beak" class="st6" d="M537.4-124.3c-20.3,11.8-19.6,50-10.6,68.7c17.4-6.5,41.8-19.3,45.5-21.6c3.8-2.3-2.1-11,12.6-11
		c20.3,0,38.7,6.3,44,8.6C625.5-86.5,583.8-124.3,537.4-124.3z"/>
	<path id="outline" class="st4" d="M750.2,2.8c-26.3-25.3-158-41.1-199.6-45.7c2-4.8,3.7-9.7,5.1-14.7c5.7-2.5,11.8-4.8,18.1-6.7
		c0.8,2.3,4.4,11,6.5,15.1c83.6,2.3,87.8-62.1,91.2-79.7c3.3-17.2,3.2-33.9,31.8-64.4c-42.7-12.4-104.1,19.3-124.7,66.5
		c-7.7-2.9-15.5-5-23.1-6.4c-5.5-22.1-34.1-83.8-109.1-83.8c-48.6,0-97.6,20.1-134.4,55c-19.9,18.8-35.4,41.2-46.3,66.5
		C254-68.1,248-38.1,248-6c0,111.5,76.1,209.2,119.1,209.2c18.8,0,34.9-14.1,38.7-26.7c3.2,8.6,12.9,35.5,16.1,42.4
		c4.7,10.1,26.6,18.9,36.2,8.4c12.3,6.8,34.9,11,47.3-7.3c23.7,5,44.7-9.1,45.2-26c11.6-0.6,17.4-17,14.8-30
		c-1.9-9.6-21.9-44-29.7-55.9c15.5,12.6,54.6,16.1,59.4,0c24.9,19.6,63.8,9.3,66.9-6.6c30.3,7.9,65.1-9.4,59.3-30.4
		C770.1,67.7,763.9,15.9,750.2,2.8z M623.5-83c-12.8-5-29.1-8.2-40.5-8.2c-16.2,0-26,9.2-41.2,9.2c-3.2,0-10.8,0-16.9-2.2
		c4,4.2,9,6.5,18.7,6.5c5.8,0,17.3-3,26.6-5.8c0.1,2,0.3,3.9,0.6,5.8c-17.4,4.2-35.7,15.2-40.9,18.1c-11.8-26-1.7-50.5,7.7-61.8
		C579.3-121.3,613.1-92.6,623.5-83z M641.6-85l-6.4-6c-6.6-6.2-13.4-11.7-20.5-16.7c10.5-20.8,23.7-43.5,40.3-57.6
		c-18.3,7.4-36.4,29.4-47.1,53c-5.4-3.5-11-6.6-16.6-9.3c14.9-31.8,49.6-58.4,87.8-60.5C653.5-158.7,663.1-112.4,641.6-85z
		 M589-63.3c-2.8-6.1-5.7-16.3-5.3-22.2c4.8-0.1,13.9,1.7,15.3,2c-0.6,2.8-0.9,8.9-0.9,9.7c0.9-1.6,3.4-6.9,4.4-9
		c9.1,1.7,21.1,4.7,28.2,7.9C622.5-69.5,608.4-63.7,589-63.3z M532-135.1c-33.4,33.8-20.2,76.6-8,96c-17.3,28.8-51.3,48.4-90.8,57.4
		c44.3,0,70.4-11.4,85.6-22.6c9.7-7.1,14.9-14.2,17.6-18.1C602.1-18.1,706.1,3,716.3,9.9c4.1,2.8,8.3,8.8,8.9,14.7
		c-49.4-6.9-138.4-14.2-161.7-15.4c16.5,2.3,137.2,25.2,158.2,30.6c-6.4,10.4-20.9,17.7-42.7,12.6c11.8,16.1-11.1,35.4-43.1,24.8
		c7,15.8-21.4,30-53.7,13.6c0.4,15.8-40.1,17.6-56.1,0.2c0.3,2.1,2.2,6.1,3,7.8c-5.2,46.1-43,74.8-81.7,74.8
		c-94.8,0-177.4-77-177.4-179.4c0-108.3,80-189.1,176.6-189.1C501.8-195.1,526.8-151.6,532-135.1z"/>
</g>
</svg>
