<?xml version="1.0" encoding="utf-8"?>
<!-- Generator: Adobe Illustrator 19.0.0, SVG Export Plug-In . SVG Version: 6.00 Build 0)  -->
<svg version="1.1" id="Layer_1" xmlns="http://www.w3.org/2000/svg" xmlns:xlink="http://www.w3.org/1999/xlink" x="0px" y="0px"
	 viewBox="172 -204 360 335" style="enable-background:new 172 -204 360 335;" xml:space="preserve">
<style type="text/css">
	.st0{fill:#FBA919;}
	.st1{fill:#E78724;}
	.st2{fill:#87CCEE;}
	.st3{fill:#FDC168;}
	.st4{fill:#FFFFFF;}
	.st5{fill:#C9C9C9;}
	.st6{fill:#463014;}
</style>
<g id="Layer_1_1_">
	<g>
		<path class="st0" d="M239.9-122.6c0,0,5.7,22.1,6.6,29.5c0.8,7.4-14.8,23.8-14.8,32c0,8.2,3.3,22.9,21.3,30.3
			c18,7.4,20.5,26.2,20.5,37.7c0,11.5-6.6,33.6-6.6,33.6s-4.1,54.9,18,64.7c22.1,9.8,17.2,9.8,22.1,9.8c4.9,0,41,14.8,62.3,9
			c21.3-5.7,27-12.3,27-12.3s21.3,1.6,27.9-17.2c6.6-18.8,10.7-58.2,8.2-76.2c-2.5-18-5.7-41.8,9-50c14.8-8.2,30.3-18,27.9-26.2
			c-2.5-8.2-15.6-19.7-15.6-19.7s-3.3-20.5-0.8-25.4c2.5-4.9,17.2-17.2,9-26.2c-8.2-9-22.9-9-22.9-9l-18.8,1.6c0,0-32-28.7-73.8-27
			c-41.8,1.6-68,27-68,27s-13.9-4.9-26.2,0C239.9-131.6,237.4-136.5,239.9-122.6z"/>
		<path class="st1" d="M314.8-0.6c0,0-16.2,24.8-28.1,42.4c-1.8,2.7,11.9,2.9,11.9,2.9L314.8-0.6z"/>
		<path class="st1" d="M322.5-52c0,0-4.9,12.2-7.6,18.7c-2.9,7-14,10.5-14,10.5s5.7-6,5.7-21.3c0-6.4,8.3-9,8.3-9L322.5-52z"/>
		<path class="st1" d="M317.6-45.1c0,0-10,11.9-28.6,5.2c-18.6-6.7-20.5-30.5-20.5-37.2c0-6.7,35.3,6.7,40.1,9.5
			S322.3-53.2,317.6-45.1z"/>
		<path class="st1" d="M247.3-172.6c0,0,17.2-3.3,28.6,5.7c11.5,9.1,14.8,16.2,14.8,16.2l-19.3,15.3c0,0-9.3-4.3-12.2-16.7
			C256.3-164.5,258.2-170.2,247.3-172.6z"/>
		<path class="st1" d="M312.5-79.6c-7.4-10.5-19.6-15.1-29.3-15.8c-16.6-1.3-24.5,4.6-24.5,4.6s27.2,1.2,35,11.4
			c14.6,19.2,35.9,20.7,39.3,16.5c-3.9,0.2-8.3-1.8-12.9-6.1C317.2-71.8,314.9-76.2,312.5-79.6z"/>
		<path class="st1" d="M266.7-42.4c0,0-30.2-10.4-24.4-20.9c5.7-10.5,1.2-16.2,1.2-16.2S226.6-67,230.9-53.6
			c2.6,8.2,7.1,14.1,31.4,25.5c11.7,21.6,2.4,60.6,3,60.8c0.9,0.3,16.4-7.6,15.3-44.1C280.2-22.6,279.3-37.8,266.7-42.4z"/>
		<path class="st1" d="M306.2-153.9c-12.6,6.4-30,15.4-30,15.4l6.8,3.4c-0.7,1.1-1,1.7-1,1.7l7,3.2c0,0,17.1,12.4,27.5,20.3
			c-3.5-10.7-13.7-27.6-13.7-27.6S300-145.3,306.2-153.9z"/>
		<path class="st1" d="M348.2,107.9c-38.9,0-52-19.7-52-19.7l6.1,14.8c2.3,6.4,26.8,26.3,45.9,26.3"/>
		<path class="st1" d="M300.4,74.9c0,0,3.6,21.9,17.9,21.9c12.2,0,15.8-18.5,15.8-22.3L300.4,74.9z"/>
		<path class="st1" d="M276.6,41.9c1.3-3.5,5.7-17.7,7.2-30.5c1.7-15.4,1.1-38,1.1-38s-3.8,14.8-7.2,17.2
			c-3.3,2.4-9.5,18.6-9.5,18.6s-3.3,24.2-4.9,32.3C267.6,42.3,271.3,39.7,276.6,41.9z"/>
		<path class="st1" d="M242-53.8c0,0,8.1-2.9,10.5-20.5c2.4-17.7-2.9-32.9-2.9-32.9s0.5,24.3-2.4,29.1c-2.9,4.8-5.2,6.2-8.6,12.4
			C235.3-59.6,240.1-55.7,242-53.8z"/>
		<path class="st2" d="M285.1-134.9"/>
		<path class="st3" d="M251.7-168.4l-1.7-1C245.2-169.3,251.7-168.4,251.7-168.4z"/>
		<path class="st0" d="M312.8-159.2c0,0-7.6-1.3-11.5-7c-3.8-5.7-14.6-17.2-31.9-17.3c-17.2-0.1-34.3,4.6-34.3,4.6l14.9,9.4
			c1.6-0.1,4.3,0,8.9,0.1c18.7,0.6,21.6,19.1,21.6,19.1l65.9-9.1"/>
		<path class="st4" d="M319.2-57.1c0,0-8.9,8.9-22.6,6c-13.7-2.9-22-8.9-22.6-19.4c-0.6-10.5,2.9-14.6,2.9-14.6s15.3,4.8,22.6,11.1
			C306.7-67.6,312.1-57.4,319.2-57.1z"/>
		<path class="st5" d="M308.4-60.2c0,0-7.7,3.5-16.4,0.7c-11.3-3.8-12.1-15.5-12.1-15.5s-6.9,20.4,12.5,24.3
			c15.6,3.1,24.8-5.9,24.8-5.9L308.4-60.2z"/>
		<path class="st6" d="M317.2,53.8"/>
		<path class="st6" d="M313.9-163.5c-0.8-17.5,13.5-31.4,18.4-32c0.3,3-0.3,14.5,4.7,18c1.4-9.4,6.3-19.8,25.6-26.6
			c-4.1,10.9-0.6,20.1,1.2,24.4c13.2-11.9,22-10,22-10s-9.1,15.8-5.6,26.1C353.8-165.5,314-160.7,313.9-163.5z"/>
		<path class="st6" d="M257.9-136.9c-6.3-5.2-1.6-10.1-2.1-16c-0.3-3.2-0.5-6.1-1.6-7.8c-5.8-9.2-19.5-11.9-19.6-12l-6.4-1.3l4.3-5
			c0.6-0.6,18-17.3,45-8.6c18.9,6.1,32.9,26.8,33.4,27.6l-9.5,4.5c-0.1-0.2-11.2-19.6-27.4-24.8c-13.1-4.2-25.2-0.2-30.4,2.4
			c5.5,2.2,12.7,6.2,17,13c2,3.2,2.4,7.3,2.7,11.2c0.4,5.2,0.9,10.1,4.7,13.3L257.9-136.9z"/>
		<path class="st6" d="M241-60.6c0,0,7.9-9.8,10.3-29c0.9-7.5-0.7-22.4-3.3-28.2c0.5,14.1-3.1,28.2-3.1,28.2S242.5-63.4,241-60.6z"
			/>
		<path class="st6" d="M282.9-146.8c0,0-2.5-11.1-9.6-16.8c-9.9-7.9-22.1-3.7-22.2-3.7l-1.8-5.4c0.6-0.2,14.5-4.6,27.3,4.4
			c12.9,9,14.4,17.2,14.6,18.2L282.9-146.8z"/>
		<path class="st6" d="M266-67.6c0,0-4.2-6-3.4-12.5c0.4-3.2,1.9-6.6,4.6-7.7c5-2.2,7.2,3.5,7.2,3.5S267.3-82.7,266-67.6z"/>
		<path class="st6" d="M317.2,53.8"/>
		<path class="st6" d="M311.7-58.5c0.2,0.3,0.3,0.5,0.3,0.5s-13,9.8-26.3-0.1c-7.1-5.3-6.5-18.4-4.3-24c5.7,1.3,10.5,3.6,14.5,6.3
			c-5.1-4.5-9.5-7.9-9.5-8l-5.8-1.6l-11.2-3.9c-0.1,0.9-4.2,20.1,7.6,33.2c5.2,5.8,29.8,18.8,41.5-3.4L311.7-58.5z"/>
		<path class="st6" d="M310.5-57.1c7.3,11.1,25.8,4.8,25.5-7c0,0-12.3,6.8-23.2-5.7c-6.4-7.3-26.7-27.5-54.4-20.8
			C277.4-86.4,302.7-69,310.5-57.1z"/>
		<g>
			<path class="st6" d="M317.2,53.8"/>
		</g>
		<path class="st6" d="M255.7-25.7c1.8,1,8,7.4,8,17.1c0,4.8-0.5,29-2.9,43.8c3.6,2.3,6.1,2.8,9.7,5.2c1.8-17.1,3.1-42,2.5-52
			c-0.7-11.4-6.8-19.1-12.5-22.4c-1.8-1-3.6-2-5.5-3c-9.7-5.3-19.8-10.7-19.8-20c0-7.3,2.8-9.5,5.8-11.9l0.3-0.3
			c2-1.6,4.2-3.4,5.6-6.4c3.6-8.2,4.2-28.9,0-34.2c-2.1-2.6-7.7-11.5-6.1-17.4c0.6-2.3,2-3.9,4.4-5.1c2.5-1.3,5.8-1.9,9.9-1.9
			c8,0,16.9,2.4,21.5,3.9c16.4,5.2,36.2,20.2,41.9,24.7c0.2,0.1,0.3,0.2,0.3,0.2l3.6,2.5l-2.3-3.8c-0.1-0.2-14.5-23.9-40.3-32.6
			c-5-1.7-14.8-4.5-24.5-4.5c-5.8,0-10.6,1-14.5,3c-4.7,2.4-7.9,6.3-9.2,11.1c-3.2,11.9,7.3,25.2,7.7,25.6
			c1.2,2.2,1.8,18.2-1.1,24.6c-0.4,0.9-1.5,1.8-2.8,2.9c-0.4,0.3-0.9,0.7-1.4,1.1c-4,3-10.1,7.6-10.1,18.2
			c0,14.5,14.7,22.3,26.4,28.6C252.2-27.6,254.1-26.6,255.7-25.7z"/>
		<g>
			<g>
				<path class="st6" d="M257.9-136.9c-6.3-5.2-1.6-10.1-2.1-16c-0.3-3.2-0.5-6.1-1.6-7.8c-5.8-9.2-19.5-11.9-19.6-12l-6.4-1.3
					l4.3-5c0.6-0.6,18-17.3,45-8.6c18.9,6.1,32.9,26.8,33.4,27.6l-9.5,4.5c-0.1-0.2-11.2-19.6-27.4-24.8
					c-13.1-4.2-25.2-0.2-30.4,2.4c5.5,2.2,12.7,6.2,17,13c2,3.2,2.4,7.3,2.7,11.2c0.4,5.2,0.9,10.1,4.7,13.3L257.9-136.9z"/>
			</g>
			<g>
				<path class="st6" d="M257.7-135.8l-0.4-0.3c-4.7-3.9-3.8-7.7-3-11.4c0.4-1.7,0.8-3.5,0.6-5.3c-0.3-3-0.5-5.9-1.4-7.4
					c-5.5-8.7-18.9-11.5-19-11.5l-8-1.6l5.3-6.2c0.1-0.1,11.3-11.4,30.3-11.4c5.2,0,10.5,0.9,15.8,2.6c19.7,6.4,33.8,27.8,33.9,28
					l0.6,0.9l-11.2,5.3l-0.5-0.7c-1.2-2.1-11.8-19.6-26.9-24.4c-3.7-1.2-7.6-1.8-11.6-1.8c-7.2,0-13,2-16.2,3.3
					c5.2,2.3,11.5,6.3,15.5,12.6c2.2,3.4,2.5,7.6,2.9,11.7c0.4,5,0.8,9.8,4.3,12.7l1.3,1.1L257.7-135.8z"/>
			</g>
		</g>
		<g>
			<g>
				<path class="st6" d="M282.9-146.8c0,0-2.5-11.1-9.6-16.8c-9.9-7.9-22.1-3.7-22.2-3.7l-1.8-5.4c0.6-0.2,14.5-4.6,27.3,4.4
					c12.9,9,14.4,17.2,14.6,18.2L282.9-146.8z"/>
			</g>
			<g>
				<path class="st6" d="M282.2-145.5l-0.2-1.1c0-0.1-2.5-10.8-9.3-16.2c-3.8-3.1-8.5-4.6-13.8-4.6c-4.1,0-7.2,1-7.5,1.1l-0.9,0.3
					l-2.4-7.3l0.9-0.3c0.4-0.1,4.1-1.3,9.3-1.3c6.9,0,13.4,2,18.8,5.8c13.2,9.3,14.8,17.8,14.9,18.8l0.1,0.7L282.2-145.5z
					 M258.9-169.4c5.7,0,10.8,1.7,15,5c6,4.8,8.8,13.2,9.7,16.2l6.5-2.6c-0.6-2.3-3.2-9.2-14-16.8c-5.2-3.6-11.1-5.5-17.7-5.5
					c-3.6,0-6.4,0.6-7.8,0.9l1.2,3.6C253.1-168.8,255.7-169.4,258.9-169.4z"/>
			</g>
		</g>
		<path class="st6" d="M317.7,91.5L317.7,91.5c-2.8,0-5.7-1-7.7-2.8c-1.5-1.3-6.7-6.1-9-11.9c-0.9-2.2-0.7-3.9,0.6-5.2
			c0.9-0.9,2.6-1.9,6.2-1.9l2.5,0c3,0,8.1,0,12.5,0h4.2c2.7,0,4.7,0.6,5.8,1.7c1.4,1.5,1,3.4,0.6,4.4c-0.7,1.7-3.6,7.4-8.5,12.7
			C323.2,90.4,320.6,91.5,317.7,91.5z"/>
		<path class="st6" d="M320.7-56.4l-10.2-0.7c0,0,2.6,4.6,4.3,10.5c1.9,6.7-1.7,16.5-1.7,16.5S326.6-45.4,320.7-56.4z"/>
		<g>
			<path class="st6" d="M308,118.4c-36.2-2.8-49-37-49-44.2l9.5,0l-4.7,0h4.7c0,3.1,9.7,32.4,40.2,34.7L308,118.4z"/>
		</g>
		<path class="st4" d="M297.8,57c-0.6-3.3-0.6-6.4,0.1-9.4c-2.8-2.1-7.7-2.8-11.4-4c-3-1.9-18.5,2-29.8-11.7
			c-14.1-17.1-11.1-27.2-11.1-27.2c-3.6,4-7.1,2.5-12.6,21.2c-5.5,18.7,2.6,31.8,17.7,44.9c7.1,6.2,17.2,8.7,25.9,9.7
			c-2.9-2.9,5-3.2,10.4-5.2c-0.4-4.4,0.3-8.6,3.6-12.1c2-2.1,4.5-3.3,7.1-4.3c0.1-0.3,0.3-0.7,0.4-1C297.9,57.6,297.8,57.3,297.8,57
			z"/>
		<path class="st5" d="M286.8,75.1c-0.3-0.9-0.6-1.9-0.8-2.8c-0.3-1-1.5-4,0-0.6c-0.4-0.9-0.7-1.7-0.8-2.6
			c-24.5,0-45.8-16.8-41.7-52.2c-3.2-4.3-7.7,8.6-7.7,8.6s-12.3,35.6,19.4,49.4c10.5,4.6,19.9,7.9,22.1,6.6
			c4.6,0.9,8.7-2.3,10.3-4.4C287.3,76.4,287,75.8,286.8,75.1z"/>
		<path class="st6" d="M297.3,51.9c0-3,0.6-5.9,2.1-8.8c0.1-0.2,0.2-0.4,0.3-0.6c-9.4-0.1-20.3-1-29.5-4.7
			c-10.2-4.1-22.9-18-25-34.3c0,0-19.1,14.8-13.5,46.3c5.3,29.7,30.1,39.3,58.4,41c0-0.2-3.2-6.8-2.2-10.8c-16.1,1.2-34-5-42.7-19.3
			c-7.9-13.1-5.7-35.4-2.5-38.6C250.7,47.2,279.4,52.3,297.3,51.9z"/>
		<path class="st6" d="M348.2,90.8"/>
		<path class="st6" d="M300.3,33.9c-5.1,14.9-15.5,27-15.5,27s14.3-0.7,15.1-3.2c0.6-1.9,12.9-30.8,17.7-64.6
			C313.1,0.5,300.7,32.6,300.3,33.9z"/>
		<path class="st1" d="M381.4-0.6c0,0,16.2,24.8,28.1,42.4c1.8,2.7-11.9,2.9-11.9,2.9L381.4-0.6z"/>
		<path class="st1" d="M373.7-52c0,0,4.9,12.2,7.6,18.7c2.9,7,14,10.5,14,10.5s-5.7-6-5.7-21.3c0-6.4-8.3-9-8.3-9L373.7-52z"/>
		<path class="st1" d="M378.6-45.1c0,0,10,11.9,28.6,5.2c18.6-6.7,20.5-30.5,20.5-37.2c0-6.7-35.3,6.7-40.1,9.5
			C382.9-64.7,373.8-53.2,378.6-45.1z"/>
		<path class="st1" d="M448.9-172.6c0,0-17.2-3.3-28.6,5.7c-11.5,9.1-14.8,16.2-14.8,16.2l19.3,15.3c0,0,9.3-4.3,12.2-16.7
			C439.8-164.5,437.9-170.2,448.9-172.6z"/>
		<path class="st1" d="M383.6-79.6c7.4-10.5,19.6-15.1,29.3-15.8c16.6-1.3,24.5,4.6,24.5,4.6s-27.2,1.2-35,11.4
			c-14.6,19.2-35.9,20.7-39.3,16.5c3.9,0.2,8.3-1.8,12.9-6.1C378.9-71.8,381.3-76.2,383.6-79.6z"/>
		<path class="st1" d="M429.5-42.4c0,0,30.2-10.4,24.4-20.9c-5.7-10.5-1.2-16.2-1.2-16.2s16.8,12.6,12.5,25.9
			c-2.6,8.2-7.1,14.1-31.4,25.5c-11.7,21.6-2.4,60.6-3,60.8c-0.9,0.3-16.4-7.6-15.3-44.1C416-22.6,416.9-37.8,429.5-42.4z"/>
		<path class="st1" d="M390-153.9c12.6,6.4,30,15.4,30,15.4l-6.8,3.4c0.7,1.1,1,1.7,1,1.7l-7,3.2c0,0-17.1,12.4-27.6,20.3
			c3.5-10.7,13.7-27.6,13.7-27.6S396.2-145.3,390-153.9z"/>
		<path class="st1" d="M348,107.9c38.9,0,52-19.7,52-19.7l-6.1,14.8c-2.3,6.4-26.8,26.3-45.9,26.3"/>
		<path class="st1" d="M395.7,74.9c0,0-3.6,21.9-17.9,21.9c-12.2,0-15.8-18.5-15.8-22.3L395.7,74.9z"/>
		<path class="st1" d="M419.6,41.9c-1.3-3.5-5.7-17.7-7.2-30.5c-1.7-15.4-1.1-38-1.1-38s3.8,14.8,7.2,17.2
			c3.3,2.4,9.5,18.6,9.5,18.6s3.3,24.2,4.9,32.3C428.6,42.3,424.9,39.7,419.6,41.9z"/>
		<path class="st1" d="M454.2-53.8c0,0-8.1-2.9-10.5-20.5c-2.4-17.7,2.9-32.9,2.9-32.9S446-83,448.9-78.2c2.9,4.8,5.2,6.2,8.6,12.4
			C460.8-59.6,456.1-55.7,454.2-53.8z"/>
		<path class="st2" d="M411.1-134.9"/>
		<path class="st3" d="M444.5-168.4l1.7-1C451-169.3,444.5-168.4,444.5-168.4z"/>
		<path class="st0" d="M383.4-159.2c0,0,7.6-1.3,11.5-7c3.8-5.7,14.6-17.2,31.9-17.3c17.2-0.1,34.3,4.6,34.3,4.6l-14.9,9.4
			c-1.6-0.1-4.3,0-8.9,0.1c-18.7,0.6-21.6,19.1-21.6,19.1l-65.9-9.1"/>
		<path class="st4" d="M377-57.1c0,0,8.9,8.9,22.6,6c13.7-2.9,22-8.9,22.6-19.4c0.6-10.5-2.9-14.6-2.9-14.6s-15.3,4.8-22.6,11.1
			S384-57.4,377-57.1z"/>
		<path class="st5" d="M387.8-60.2c0,0,7.7,3.5,16.4,0.7c11.3-3.8,12.1-15.5,12.1-15.5s6.9,20.4-12.5,24.3
			c-15.6,3.1-24.8-5.9-24.8-5.9L387.8-60.2z"/>
		<path class="st6" d="M378.9,53.8"/>
		<path class="st6" d="M438.3-136.9c6.3-5.2,1.6-10.1,2.1-16c0.3-3.2,0.5-6.1,1.6-7.8c5.8-9.2,19.5-11.9,19.6-12l6.4-1.3l-4.3-5
			c-0.6-0.6-18-17.3-45-8.6c-18.9,6.1-32.9,26.8-33.4,27.6l9.5,4.5c0.1-0.2,11.2-19.6,27.4-24.8c13.1-4.2,25.2-0.2,30.4,2.4
			c-5.5,2.2-12.7,6.2-17,13c-2,3.2-2.4,7.3-2.7,11.2c-0.4,5.2-0.9,10.1-4.7,13.3L438.3-136.9z"/>
		<path class="st6" d="M455.1-60.6c0,0-7.9-9.8-10.3-29c-0.9-7.5,0.7-22.4,3.3-28.2c-0.5,14.1,3.1,28.2,3.1,28.2
			S453.7-63.4,455.1-60.6z"/>
		<path class="st6" d="M413.3-146.8c0,0,2.5-11.1,9.6-16.8c9.9-7.9,22.1-3.7,22.2-3.7l1.8-5.4c-0.6-0.2-14.5-4.6-27.3,4.4
			c-12.9,9-14.4,17.2-14.6,18.2L413.3-146.8z"/>
		<path class="st6" d="M430.2-67.6c0,0,4.2-6,3.4-12.5c-0.4-3.2-1.9-6.6-4.5-7.7c-5-2.2-7.2,3.5-7.2,3.5S428.9-82.7,430.2-67.6z"/>
		<path class="st6" d="M378.9,53.8"/>
		<path class="st6" d="M384.5-58.5c-0.2,0.3-0.3,0.5-0.3,0.5s13,9.8,26.3-0.1c7.1-5.3,6.5-18.4,4.3-24c-5.7,1.3-10.5,3.6-14.5,6.3
			c5.1-4.5,9.5-7.9,9.5-8l5.8-1.6l11.2-3.9c0.1,0.9,4.2,20.1-7.6,33.2c-5.2,5.8-29.8,18.8-41.5-3.4L384.5-58.5z"/>
		<path class="st6" d="M385.7-57.1c-7.3,11.1-25.8,4.8-25.5-7c0,0,12.3,6.8,23.2-5.7c6.4-7.3,26.8-27.5,54.4-20.8
			C418.8-86.4,393.5-69,385.7-57.1z"/>
		<g>
			<path class="st6" d="M378.9,53.8"/>
		</g>
		<path class="st6" d="M440.4-25.7c-1.8,1-8,7.4-8,17.1c0,4.8,0.5,29,2.9,43.8c-3.6,2.3-6.1,2.8-9.7,5.2c-1.8-17.1-3.1-42-2.5-52
			c0.7-11.4,6.8-19.1,12.5-22.4c1.8-1,3.6-2,5.5-3c9.7-5.3,19.8-10.7,19.8-20c0-7.3-2.8-9.5-5.8-11.9l-0.3-0.3
			c-2-1.6-4.2-3.4-5.6-6.4c-3.6-8.2-4.2-28.9,0-34.2c2.1-2.6,7.7-11.5,6.1-17.4c-0.6-2.3-2-3.9-4.4-5.1c-2.5-1.3-5.8-1.9-9.9-1.9
			c-8,0-16.9,2.4-21.5,3.9c-16.4,5.2-36.2,20.2-41.9,24.7c-0.2,0.1-0.3,0.2-0.3,0.2l-3.6,2.5l2.3-3.8c0.1-0.2,14.5-23.9,40.3-32.6
			c5-1.7,14.8-4.5,24.5-4.5c5.8,0,10.6,1,14.5,3c4.7,2.4,7.9,6.3,9.2,11.1c3.2,11.9-7.3,25.2-7.7,25.6c-1.2,2.2-1.8,18.2,1.1,24.6
			c0.4,0.9,1.5,1.8,2.8,2.9c0.4,0.3,0.9,0.7,1.4,1.1c4,3,10.1,7.6,10.1,18.2c0,14.5-14.7,22.3-26.4,28.6
			C443.9-27.6,442.1-26.6,440.4-25.7z"/>
		<path class="st6" d="M422.9-138.6c-2.3-4-8.3-11.6-22-18.3c-15.3-7.5-33.1-11.3-52.8-11.3v0c0,0,0,0,0,0c0,0,0,0,0,0v0
			c-19.7,0-37.4,3.8-52.8,11.3c-13.7,6.7-19.7,14.3-22,18.3l-1,1.3l11.8,2.6l0.4-0.5l0.2-0.4c0.2-0.8,1.8-5,14.9-11.4
			c14-6.8,30.4-10.3,48.6-10.3c18.2,0,34.6,3.5,48.6,10.3c13.1,6.4,14.7,10.6,14.9,11.4l0.2,0.4l0.4,0.5l11.8-2.6L422.9-138.6z"/>
		<g>
			<g>
				<path class="st6" d="M438.3-136.9c6.3-5.2,1.6-10.1,2.1-16c0.3-3.2,0.5-6.1,1.6-7.8c5.8-9.2,19.5-11.9,19.6-12l6.4-1.3l-4.3-5
					c-0.6-0.6-18-17.3-45-8.6c-18.9,6.1-32.9,26.8-33.4,27.6l9.5,4.5c0.1-0.2,11.2-19.6,27.4-24.8c13.1-4.2,25.2-0.2,30.4,2.4
					c-5.5,2.2-12.7,6.2-17,13c-2,3.2-2.4,7.3-2.7,11.2c-0.4,5.2-0.9,10.1-4.7,13.3L438.3-136.9z"/>
			</g>
			<g>
				<path class="st6" d="M426.2-139.9l1.3-1.1c3.5-2.9,3.9-7.7,4.4-12.7c0.3-4,0.7-8.2,2.9-11.7c4-6.3,10.3-10.2,15.5-12.6
					c-3.1-1.3-9-3.3-16.2-3.3c-4,0-7.9,0.6-11.6,1.8c-15,4.8-25.7,22.4-26.9,24.4l-0.5,0.7l-11.2-5.3l0.6-0.9
					c0.1-0.2,14.2-21.6,33.9-28c5.3-1.7,10.6-2.6,15.8-2.6c19,0,30.2,11.3,30.3,11.4l5.3,6.2l-8,1.6c-0.1,0-13.5,2.8-19,11.5
					c-0.9,1.5-1.2,4.3-1.4,7.4c-0.2,1.8,0.2,3.6,0.6,5.3c0.8,3.7,1.6,7.5-3,11.4l-0.4,0.3L426.2-139.9z"/>
			</g>
		</g>
		<g>
			<g>
				<path class="st6" d="M413.3-146.8c0,0,2.5-11.1,9.6-16.8c9.9-7.9,22.1-3.7,22.2-3.7l1.8-5.4c-0.6-0.2-14.5-4.6-27.3,4.4
					c-12.9,9-14.4,17.2-14.6,18.2L413.3-146.8z"/>
			</g>
			<g>
				<path class="st6" d="M404-149.5l0.1-0.7c0.1-0.9,1.8-9.5,14.9-18.8c5.4-3.8,11.9-5.8,18.8-5.8c5.2,0,8.9,1.1,9.3,1.3l0.9,0.3
					l-2.4,7.3l-0.9-0.3c-0.3-0.1-3.4-1.1-7.5-1.1c-5.3,0-9.9,1.6-13.8,4.6c-6.7,5.4-9.2,16.1-9.3,16.2l-0.2,1.1L404-149.5z
					 M444.5-168.4l1.2-3.6c-1.4-0.4-4.2-0.9-7.8-0.9c-6.6,0-12.5,1.8-17.7,5.5c-10.8,7.6-13.4,14.5-14,16.8l6.5,2.6
					c0.8-3,3.7-11.4,9.7-16.2c4.1-3.3,9.3-5,15-5C440.5-169.4,443.1-168.8,444.5-168.4z"/>
			</g>
		</g>
		<path class="st6" d="M371.2,88.6c-4.9-5.3-7.8-10.9-8.5-12.7c-0.4-1-0.9-2.9,0.6-4.4c1.1-1.1,3.1-1.7,5.8-1.7h4.2
			c4.4,0,9.5,0,12.5,0l2.5,0c3.6,0,5.3,1,6.2,1.9c1.2,1.2,1.4,3,0.6,5.2c-2.3,5.8-7.4,10.6-9,11.9c-2,1.7-4.9,2.8-7.7,2.8l0,0
			C375.6,91.5,373,90.4,371.2,88.6z"/>
		<path class="st6" d="M375.5-56.4l10.2-0.7c0,0-2.6,4.6-4.3,10.5c-1.9,6.7,1.7,16.5,1.7,16.5S369.6-45.4,375.5-56.4z"/>
		<path class="st1" d="M348.1-92.8c-6.5,0-15-0.2-21.3-4.7c0,0,8.3,14.6,21.3,14.6l0-1.8l0,1.8c13,0,21.3-14.6,21.3-14.6
			C363-93,354.6-92.8,348.1-92.8z"/>
		<path class="st6" d="M366-92.9c-6.5,3.9-12.3,5.3-17.9,5.4c-5.5-0.1-11.4-1.5-17.9-5.4c0,0,9.5,11.6,17.8,11.7v0c0,0,0,0,0,0
			c0,0,0,0,0,0v0C356.5-81.3,366-92.9,366-92.9z"/>
		<g>
			<path class="st6" d="M388.2,118.4l-0.7-9.4c30.6-2.4,40.2-31.6,40.2-34.7h9.5C437.2,81.3,424.4,115.6,388.2,118.4z"/>
		</g>
		<path class="st4" d="M398.4,57c0.6-3.3,0.6-6.4-0.1-9.4c2.8-2.1,7.7-2.8,11.4-4c3-1.9,18.6,2,29.8-11.7
			c14.1-17.1,11.1-27.2,11.1-27.2c3.6,4,7.1,2.5,12.6,21.2c5.5,18.7-2.6,31.8-17.7,44.9c-7.1,6.2-17.2,8.7-25.9,9.7
			c2.9-2.9-5-3.2-10.4-5.2c0.4-4.4-0.3-8.6-3.6-12.1c-2-2.1-4.5-3.3-7.1-4.3c-0.1-0.3-0.3-0.7-0.4-1C398.3,57.6,398.3,57.3,398.4,57
			z"/>
		<path class="st5" d="M409.3,75.1c0.3-0.9,0.6-1.9,0.8-2.8c0.3-1,1.5-4,0-0.6c0.4-0.9,0.7-1.7,0.8-2.6c24.5,0,45.8-16.8,41.7-52.2
			c3.2-4.3,7.7,8.6,7.7,8.6s12.3,35.6-19.4,49.4c-10.5,4.6-19.9,7.9-22.1,6.6c-4.6,0.9-8.7-2.3-10.3-4.4
			C408.9,76.4,409.1,75.8,409.3,75.1z"/>
		<path class="st6" d="M398.8,51.9c0-3-0.6-5.9-2.1-8.8c-0.1-0.2-0.2-0.4-0.3-0.6c9.4-0.1,20.3-1,29.5-4.7c10.2-4.1,22.9-18,25-34.3
			c0,0,19.1,14.8,13.5,46.3c-5.3,29.7-30.1,39.3-58.4,41c0-0.2,3.2-6.8,2.2-10.8c16.1,1.2,34-5,42.7-19.3
			c7.9-13.1,5.7-35.4,2.4-38.6C445.5,47.2,416.8,52.3,398.8,51.9z"/>
		<g>
			<path class="st6" d="M348,90.8"/>
			<path class="st6" d="M410.3,59.3c-3.4-3.7-9.6-8-23.9-8c0,0-27.2,0-38.2,0l0,0c0,0,0,0,0,0c0,0,0,0,0,0l0,0c-11,0-38.2,0-38.2,0
				c-14.3,0-20.6,4.4-23.9,8c-4.9,5.3-5.7,12.7-2.3,22c9.1,24.6,21.8,49.6,64.4,49.7v0c0,0,0,0,0,0c0,0,0,0,0,0v0
				c42.6,0,55.4-25.1,64.4-49.7C416,72.1,415.2,64.7,410.3,59.3z M403.6,79.6c-4.3,12.4-15.9,42.3-55.5,42.4
				c-39.6-0.1-51.2-30-55.5-42.4c-2.4-6.9-2.2-11.9,0.6-15.1c1.9-2.2,6.2-4.7,16.1-4.7l10.3,0c7.6,0,17.2,0,28.5,0
				c11.3,0,20.9,0,28.5,0l10.3,0c9.9,0,14.2,2.6,16.1,4.7C405.8,67.6,406,72.7,403.6,79.6z"/>
		</g>
		<path class="st6" d="M395.9,33.9c5.1,14.9,15.5,27,15.5,27s-14.3-0.7-15.1-3.2c-0.6-1.9-12.9-30.8-17.7-64.6
			C383.1,0.5,395.4,32.6,395.9,33.9z"/>
	</g>
</g>
</svg>
